<svg xmlns="http://www.w3.org/2000/svg" viewBox="0 0 512 512"><g fill="#e08344"><path d="M336 512c-20.036 0-33.468-4.429-45.319-8.336C279.835 500.088 270.468 497 256 497c-14.468 0-23.835 3.088-34.681 6.664C209.468 507.571 196.036 512 176 512c-53.271 0-95-28.551-95-65 0-73.351 84.761-195 175-195 90.238 0 175 121.649 175 195 0 36.449-41.729 65-95 65zM166 230c-42.056 0-75-50.514-75-115S123.944 0 166 0s75 50.514 75 115-32.944 115-75 115z"/></g><path d="M346 230c-42.056 0-75-50.514-75-115S303.944 0 346 0s75 50.514 75 115-32.944 115-75 115z" fill="#d6702b"/><path d="M13.08 288.193C-8.115 250-2.711 210.624 23.212 195.741c25.673-14.741 62.751-.983 85.131 37.452 22.209 38.141 15.075 77.778-10.131 92.452-24.66 14.355-63.816.957-85.132-37.452z" fill="#e08344"/><g fill="#d6702b"><path d="M413.788 325.644c-25.206-14.674-32.34-54.311-10.131-92.452 22.38-38.435 59.458-52.193 85.131-37.452 25.922 14.884 31.327 54.259 10.131 92.452-21.315 38.41-60.471 51.808-85.131 37.452zM256 252v245c14.468 0 23.835 3.088 34.681 6.664C302.532 507.571 315.964 512 336 512c53.271 0 95-28.551 95-65 0-73.351-84.762-195-175-195z"/></g></svg>
