<svg width="512" height="512" viewBox="0 0 512 512" xmlns="http://www.w3.org/2000/svg"><g fill="none" fill-rule="evenodd"><path fill="#FFF" d="M0 0h512v512H0z"/><path d="M320.719 462c-16.084 0-26.866-3.555-36.38-6.692-8.706-2.87-16.225-5.349-27.839-5.349-11.614 0-19.133 2.479-27.84 5.35-9.513 3.136-20.295 6.691-36.379 6.691-42.762 0-76.26-22.919-76.26-52.178 0-58.881 68.041-156.533 140.479-156.533 72.437 0 140.479 97.652 140.479 156.533 0 29.26-33.498 52.178-76.26 52.178zM184.254 235.629c-33.76 0-60.205-40.55-60.205-92.315S150.494 51 184.254 51s60.205 40.55 60.205 92.314c0 51.766-26.445 92.315-60.205 92.315z" fill="#E08344" fill-rule="nonzero"/><path d="M328.746 235.629c-33.76 0-60.205-40.55-60.205-92.315S294.986 51 328.746 51s60.205 40.55 60.205 92.314c0 51.766-26.445 92.315-60.205 92.315z" fill="#D6702B" fill-rule="nonzero"/><path d="M61.5 282.342c-17.014-30.658-12.676-62.267 8.133-74.214 20.609-11.833 50.372-.79 68.338 30.064 17.828 30.617 12.1 62.435-8.133 74.214-19.795 11.524-51.227.769-68.338-30.064z" fill="#E08344" fill-rule="nonzero"/><path d="M383.162 312.406c-20.234-11.78-25.96-43.598-8.133-74.215 17.966-30.853 47.73-41.897 68.338-30.064 20.808 11.948 25.147 43.556 8.132 74.215-17.11 30.833-48.542 41.588-68.337 30.064zM256.5 253.29v196.669c11.614 0 19.133 2.479 27.84 5.35 9.513 3.136 20.295 6.691 36.379 6.691 42.762 0 76.26-22.919 76.26-52.178 0-58.881-68.042-156.533-140.479-156.533z" fill="#D6702B" fill-rule="nonzero"/></g></svg>
